<svg width="512" height="512" viewBox="0 0 512 512" fill="none" xmlns="http://www.w3.org/2000/svg">
  <defs>
    <linearGradient id="qcBg" x1="72" y1="56" x2="448" y2="456" gradientUnits="userSpaceOnUse">
      <stop stop-color="#0D56CF"/>
      <stop offset="1" stop-color="#003DA5"/>
    </linearGradient>
  </defs>
  <rect width="512" height="512" rx="120" fill="url(#qcBg)"/>
  <!-- Sacola branca: asa + corpo -->
  <path
    fill="white"
    d="M176 214
       C176 168 208 136 256 136
       C304 136 336 168 336 214
       L336 218
       L352 218
       C374 218 392 236 392 258
       L392 384
       C392 406 374 424 352 424
       L160 424
       C138 424 120 406 120 384
       L120 258
       C120 236 138 218 160 218
       L176 218
       L176 214Z"
  />
  <!-- Linhas de lista (lista partilhada) -->
  <rect x="168" y="248" width="176" height="12" rx="6" fill="#003DA5" fill-opacity="0.28"/>
  <rect x="168" y="270" width="176" height="12" rx="6" fill="#003DA5" fill-opacity="0.28"/>
  <rect x="192" y="292" width="128" height="12" rx="6" fill="#003DA5" fill-opacity="0.28"/>
  <text
    x="256"
    y="362"
    text-anchor="middle"
    font-family="Arial Rounded MT Bold, Arial Rounded, Arial, sans-serif"
    font-size="168"
    font-weight="700"
    fill="#003DA5"
  >B</text>
</svg>
